# xmcd
#
# Track frame offsets: 
#        150
#        15677
#        30405
#        46187
#        64000
#        75902
#        92417
#        102365
#        114212
#        130015
#        144125
#
# Disc length: 2203 seconds
#
# Revision: 15
# Processed by: cddbd v1.5.2PL0 Copyright (c) Steve Scherf et al.
# Submitted via: ExactAudioCopy v1.2
#
DISCID=7108990b
DTITLE=Kenny Chesney - Me And You
DYEAR=1996
DGENRE=Country
TTITLE0=Back In My Arms Again
TTITLE1=Ain't That Love
TTITLE2=When I Close My Eyes
TTITLE3=Back Where I Come From
TTITLE4=Turn For The Worse
TTITLE5=Me And You
TTITLE6=(Turn Out The Lights And) Love Me Tonight
TTITLE7=Another Friday Night
TTITLE8=No Small Miracle
TTITLE9=My Poor Old Heart
TTITLE10=It's Never Easy To Say Goodbye
EXTD=YEAR: 1996
EXTT0=
EXTT1=
EXTT2=
EXTT3=
EXTT4=
EXTT5=
EXTT6=
EXTT7=
EXTT8=
EXTT9=
EXTT10=
PLAYORDER=
